<svg id="Capa_1" data-name="Capa 1" xmlns="http://www.w3.org/2000/svg" xmlns:xlink="http://www.w3.org/1999/xlink" viewBox="0 0 65.01 38.9"><defs><style>.cls-1{fill:url(#Degradado_sin_nombre);}.cls-2{fill:url(#Degradado_sin_nombre_2);}</style><linearGradient id="Degradado_sin_nombre" x1="-10.32" y1="56.71" x2="35.26" y2="61.08" gradientTransform="matrix(1, 0, 0, -1, 0, 92.19)" gradientUnits="userSpaceOnUse"><stop offset="0" stop-color="#3f6fa7"/><stop offset="0.3" stop-color="#3f6fa7"/><stop offset="0.76" stop-color="#5691c1"/><stop offset="0.99" stop-color="#63a6d3"/></linearGradient><linearGradient id="Degradado_sin_nombre_2" x1="15.56" y1="73.7" x2="79.61" y2="36.86" gradientTransform="matrix(1, 0, 0, -1, 0, 92.19)" gradientUnits="userSpaceOnUse"><stop offset="0" stop-color="#3f6fa7"/><stop offset="0.12" stop-color="#3f6fa7"/><stop offset="0.79" stop-color="#5691c1"/><stop offset="0.99" stop-color="#63a6d3"/></linearGradient></defs><title>logo-nivimu</title><path class="cls-1" d="M28,13.6l-15.3-.1A12.72,12.72,0,0,0,0,26.2V52.4h20.1V25.3C20.21,15.8,28,13.6,28,13.6Z" transform="translate(-0.01 -13.5)"/><path class="cls-2" d="M30.91,14.9a10.14,10.14,0,0,0-6.2,3.1A11.37,11.37,0,0,0,22,25.7v8h4a18.67,18.67,0,0,1,18.7,18.7H65C65.41,30.7,45.41,13.2,30.91,14.9Z" transform="translate(-0.01 -13.5)"/></svg>